<svg width="40" height="40" viewBox="0 0 40 40" fill="none" xmlns="http://www.w3.org/2000/svg">
<mask id="mask0_67_3149" style="mask-type:alpha" maskUnits="userSpaceOnUse" x="0" y="0" width="40" height="40">
<rect width="40" height="40" fill="#D9D9D9"/>
</mask>
<g mask="url(#mask0_67_3149)">
<path d="M2.95647 35.0529C5.19059 32.9161 7.74941 31.21 10.6329 29.9347C13.5169 28.659 16.6378 28.0212 19.9959 28.0212C23.3539 28.0212 26.4763 28.659 29.3629 29.9347C32.2492 31.21 34.8094 32.9161 37.0435 35.0529V3.68059C37.0435 3.49941 36.9682 3.33333 36.8176 3.18235C36.6667 3.03176 36.5006 2.95647 36.3194 2.95647H3.68059C3.49941 2.95647 3.33333 3.03176 3.18235 3.18235C3.03177 3.33333 2.95647 3.49941 2.95647 3.68059V35.0529ZM20.0559 22.9924C22.1743 22.9924 23.9692 22.2569 25.4406 20.7859C26.9116 19.3149 27.6471 17.52 27.6471 15.4012C27.6471 13.2827 26.9116 11.4878 25.4406 10.0165C23.9692 8.54549 22.1743 7.81 20.0559 7.81C17.9371 7.81 16.1422 8.54549 14.6712 10.0165C13.2002 11.4878 12.4647 13.2827 12.4647 15.4012C12.4647 17.52 13.2002 19.3149 14.6712 20.7859C16.1422 22.2569 17.9371 22.9924 20.0559 22.9924ZM3.68059 40C2.66922 40 1.80294 39.6394 1.08176 38.9182C0.360588 38.1971 0 37.3308 0 36.3194V3.68059C0 2.66922 0.360588 1.80294 1.08176 1.08177C1.80294 0.360589 2.66922 0 3.68059 0H36.3194C37.3308 0 38.1971 0.360589 38.9182 1.08177C39.6394 1.80294 40 2.66922 40 3.68059V36.3194C40 37.3308 39.6394 38.1971 38.9182 38.9182C38.1971 39.6394 37.3308 40 36.3194 40H3.68059ZM4.97706 37.0435H34.9988C32.6518 34.9471 30.2225 33.412 27.7112 32.4382C25.1998 31.4641 22.6269 30.9771 19.9924 30.9771C17.388 30.9771 14.8212 31.4641 12.2918 32.4382C9.76235 33.412 7.32412 34.9471 4.97706 37.0435ZM20.0635 20.0365C18.7765 20.0365 17.6808 19.5845 16.7765 18.6806C15.8725 17.7763 15.4206 16.6831 15.4206 15.4012C15.4206 14.1192 15.8725 13.0263 16.7765 12.1224C17.6808 11.2184 18.7739 10.7665 20.0559 10.7665C21.3378 10.7665 22.4308 11.2194 23.3347 12.1253C24.2386 13.0316 24.6906 14.121 24.6906 15.3935C24.6906 16.6806 24.2376 17.7763 23.3318 18.6806C22.4255 19.5845 21.3361 20.0365 20.0635 20.0365Z" fill="white"/>
</g>
</svg>
