<svg width="32" height="32" viewBox="0 0 32 32" fill="none" xmlns="http://www.w3.org/2000/svg">
<mask id="mask0_55_563" style="mask-type:alpha" maskUnits="userSpaceOnUse" x="0" y="0" width="32" height="32">
<rect width="32" height="32" fill="#D9D9D9"/>
</mask>
<g mask="url(#mask0_55_563)">
<path d="M8.66672 13.4847L6.80772 14.5127C6.52239 14.6733 6.2275 14.7157 5.92306 14.6397C5.61883 14.5637 5.38639 14.3829 5.22572 14.0973L3.07206 10.3283C2.91139 10.0428 2.86906 9.74577 2.94506 9.43732C3.02106 9.12866 3.20183 8.89399 3.48739 8.73332L10.4874 4.66666H12.4617C12.6873 4.66666 12.8676 4.73421 13.0027 4.86932C13.1376 5.00443 13.2051 5.18477 13.2051 5.41032V5.87199C13.2051 6.63088 13.4812 7.28643 14.0334 7.83866C14.5856 8.39066 15.2412 8.66666 16.0001 8.66666C16.7589 8.66666 17.4145 8.39066 17.9667 7.83866C18.5189 7.28643 18.7951 6.63088 18.7951 5.87199V5.41032C18.7951 5.18477 18.8625 5.00443 18.9974 4.86932C19.1325 4.73421 19.3128 4.66666 19.5384 4.66666H21.5127L28.5127 8.73332C28.7983 8.89399 28.9791 9.12866 29.0551 9.43732C29.1311 9.74577 29.0887 10.0428 28.9281 10.3283L26.7744 14.0973C26.6137 14.3829 26.3846 14.5602 26.0871 14.6293C25.7897 14.6987 25.4915 14.653 25.1924 14.4923L23.3334 13.505V26.1537C23.3334 26.4888 23.2205 26.7691 22.9947 26.9947C22.7692 27.2204 22.4888 27.3333 22.1537 27.3333H9.84639C9.51128 27.3333 9.23095 27.2204 9.00539 26.9947C8.77961 26.7691 8.66672 26.4888 8.66672 26.1537V13.4847ZM10.6667 10.1333V25.3333H21.3334V10.1333L25.4411 12.3873L26.8154 10.0667L21.0951 6.70766H20.6717C20.4666 7.83254 19.9351 8.77354 19.0771 9.53066C18.2188 10.288 17.1932 10.6667 16.0001 10.6667C14.8069 10.6667 13.7813 10.288 12.9231 9.53066C12.0651 8.77354 11.5335 7.83254 11.3284 6.70766H10.9051L5.18472 10.0667L6.55906 12.3873L10.6667 10.1333Z" fill="white"/>
</g>
</svg>
