<svg width="44" height="44" viewBox="0 0 44 44" fill="none" xmlns="http://www.w3.org/2000/svg">
<mask id="mask0_50_17" style="mask-type:alpha" maskUnits="userSpaceOnUse" x="0" y="0" width="44" height="44">
<rect width="43.95" height="43.95" fill="#D9D9D9"/>
</mask>
<g mask="url(#mask0_50_17)">
<path d="M18.1257 25.1444L21.975 22.8201L25.8242 25.1444L24.7955 20.7531L28.1943 17.8231L23.7394 17.4463L21.975 13.3118L20.2105 17.4463L15.7556 17.8231L19.1544 20.7531L18.1257 25.1444ZM10.0718 37.0828V9.15625C10.0718 8.37522 10.3525 7.70254 10.9138 7.13821C11.475 6.57419 12.1492 6.29218 12.9364 6.29218H31.0135C31.8007 6.29218 32.4749 6.57419 33.0361 7.13821C33.5974 7.70254 33.8781 8.37522 33.8781 9.15625V37.0828L21.975 31.9763L10.0718 37.0828ZM12.3728 33.559L21.975 29.4666L31.5771 33.559V9.15625C31.5771 9.01555 31.5185 8.88644 31.4013 8.76894C31.2838 8.65143 31.1545 8.59268 31.0135 8.59268H12.9364C12.7954 8.59268 12.6661 8.65143 12.5486 8.76894C12.4314 8.88644 12.3728 9.01555 12.3728 9.15625V33.559Z" fill="#1C1B1F"/>
</g>
</svg>
