<svg width="32" height="32" viewBox="0 0 32 32" fill="none" xmlns="http://www.w3.org/2000/svg">
<mask id="mask0_55_607" style="mask-type:alpha" maskUnits="userSpaceOnUse" x="0" y="0" width="32" height="32">
<rect width="32" height="32" fill="#D9D9D9"/>
</mask>
<g mask="url(#mask0_55_607)">
<path d="M8.00008 28C7.00008 28 6.01119 27.7556 5.03341 27.2667C4.05564 26.7778 3.26675 26.1333 2.66675 25.3333C3.24453 25.3333 3.83341 25.1055 4.43341 24.65C5.03341 24.1944 5.33341 23.5333 5.33341 22.6667C5.33341 21.5555 5.7223 20.6111 6.50008 19.8333C7.27786 19.0555 8.2223 18.6667 9.33342 18.6667C10.4445 18.6667 11.389 19.0555 12.1667 19.8333C12.9445 20.6111 13.3334 21.5555 13.3334 22.6667C13.3334 24.1333 12.8112 25.3889 11.7667 26.4333C10.7223 27.4778 9.46675 28 8.00008 28ZM8.00008 25.3333C8.73342 25.3333 9.36119 25.0722 9.88341 24.55C10.4056 24.0278 10.6667 23.4 10.6667 22.6667C10.6667 22.2889 10.539 21.9722 10.2834 21.7167C10.0279 21.4611 9.71119 21.3333 9.33342 21.3333C8.95564 21.3333 8.63897 21.4611 8.38341 21.7167C8.12786 21.9722 8.00008 22.2889 8.00008 22.6667C8.00008 23.1778 7.93897 23.6444 7.81675 24.0667C7.69453 24.4889 7.53341 24.8889 7.33342 25.2667C7.44453 25.3111 7.55564 25.3333 7.66675 25.3333H8.00008ZM15.6667 20L12.0001 16.3333L23.9334 4.39999C24.1779 4.15555 24.4834 4.02777 24.8501 4.01666C25.2167 4.00555 25.5334 4.13332 25.8001 4.39999L27.6001 6.19999C27.8668 6.46666 28.0001 6.77777 28.0001 7.13332C28.0001 7.48888 27.8668 7.79999 27.6001 8.06666L15.6667 20Z" fill="white"/>
</g>
</svg>
