<svg width="32" height="32" viewBox="0 0 32 32" fill="none" xmlns="http://www.w3.org/2000/svg">
<mask id="mask0_55_531" style="mask-type:alpha" maskUnits="userSpaceOnUse" x="0" y="0" width="32" height="32">
<rect width="32" height="32" fill="#D9D9D9"/>
</mask>
<g mask="url(#mask0_55_531)">
<path d="M10.6667 8.44369L7.14108 4.91802L8.53341 3.52569L12.0591 7.05135L10.6667 8.44369ZM21.3334 8.44369L19.9411 7.05135L23.4667 3.52569L24.8591 4.91802L21.3334 8.44369ZM15.0001 6.71802V0.718018H17.0001V6.71802H15.0001ZM5.66675 31.3334C5.38341 31.3334 5.14597 31.2375 4.95441 31.0457C4.76264 30.8541 4.66675 30.6167 4.66675 30.3334V20.1027L7.38975 12.3334C7.48908 12.0274 7.67119 11.7842 7.93608 11.604C8.20097 11.4236 8.49586 11.3334 8.82075 11.3334H23.2307C23.5427 11.3334 23.8261 11.425 24.0807 11.6084C24.3352 11.7917 24.5117 12.0334 24.6104 12.3334L27.3334 20.1027V30.3334C27.3334 30.6167 27.2375 30.8541 27.0457 31.0457C26.8542 31.2375 26.6167 31.3334 26.3334 31.3334H25.5131C25.2297 31.3334 24.9922 31.2375 24.8004 31.0457C24.6089 30.8541 24.5131 30.6167 24.5131 30.3334V28.6667H7.48708V30.3334C7.48708 30.6167 7.3913 30.8541 7.19975 31.0457C7.00797 31.2375 6.77041 31.3334 6.48708 31.3334H5.66675ZM7.47708 18.1027H24.5231L22.8411 13.3334H9.15908L7.47708 18.1027ZM9.95175 25.1284C10.4369 25.1284 10.8483 24.9585 11.1861 24.6187C11.5236 24.2791 11.6924 23.8668 11.6924 23.3817C11.6924 22.8966 11.5226 22.4851 11.1831 22.1474C10.8433 21.8098 10.4309 21.641 9.94575 21.641C9.46064 21.641 9.0493 21.8108 8.71175 22.1504C8.37397 22.4901 8.20508 22.9026 8.20508 23.3877C8.20508 23.8728 8.37497 24.2841 8.71475 24.6217C9.0543 24.9595 9.46664 25.1284 9.95175 25.1284ZM22.0544 25.1284C22.5395 25.1284 22.9509 24.9585 23.2884 24.6187C23.6262 24.2791 23.7951 23.8668 23.7951 23.3817C23.7951 22.8966 23.6252 22.4851 23.2854 22.1474C22.9459 21.8098 22.5335 21.641 22.0484 21.641C21.5633 21.641 21.1519 21.8108 20.8141 22.1504C20.4765 22.4901 20.3077 22.9026 20.3077 23.3877C20.3077 23.8728 20.4775 24.2841 20.8171 24.6217C21.1569 24.9595 21.5693 25.1284 22.0544 25.1284ZM6.66675 26.6667H25.3334V20.1027H6.66675V26.6667Z" fill="white"/>
</g>
</svg>
