<svg width="32" height="32" viewBox="0 0 32 32" fill="none" xmlns="http://www.w3.org/2000/svg">
<mask id="mask0_55_497" style="mask-type:alpha" maskUnits="userSpaceOnUse" x="0" y="0" width="32" height="32">
<rect width="32" height="32" fill="#D9D9D9"/>
</mask>
<g mask="url(#mask0_55_497)">
<path d="M5.99995 27.3333V14.987L3.51028 16.8973L2.30762 15.3027L5.99995 12.4667V8.64099H7.99995V10.9333L15.9999 4.83332L29.6923 15.3027L28.4896 16.877L26 14.987V27.3333H5.99995ZM7.99995 25.3333H14.4103V19.487H17.5896V25.3333H24V13.4667L15.9999 7.36666L7.99995 13.4667V25.3333ZM5.99995 7.17966C5.99995 6.22233 6.32262 5.4061 6.96795 4.73099C7.61328 4.05566 8.45306 3.71799 9.48728 3.71799C9.96751 3.71799 10.3354 3.57744 10.591 3.29633C10.8465 3.01499 10.9743 2.66832 10.9743 2.25632H12.9743C12.9743 3.21366 12.6516 4.02999 12.0063 4.70532C11.3609 5.38043 10.5213 5.71799 9.48728 5.71799C9.00684 5.71799 8.63884 5.85855 8.38328 6.13966C8.12773 6.42099 7.99995 6.76766 7.99995 7.17966H5.99995Z" fill="white"/>
</g>
</svg>
