<svg width="32" height="32" viewBox="0 0 32 32" fill="none" xmlns="http://www.w3.org/2000/svg">
<mask id="mask0_55_600" style="mask-type:alpha" maskUnits="userSpaceOnUse" x="0" y="0" width="32" height="32">
<rect width="32" height="32" fill="#D9D9D9"/>
</mask>
<g mask="url(#mask0_55_600)">
<path d="M12.6667 29.3333C11.0001 29.3333 9.58341 28.75 8.41675 27.5833C7.25008 26.4167 6.66675 25 6.66675 23.3333C6.66675 22.5555 6.85564 21.8389 7.23341 21.1833C7.61119 20.5278 8.31119 19.6889 9.33341 18.6667C9.46675 18.5333 9.59453 18.3944 9.71675 18.25C9.83897 18.1055 10.0001 17.9111 10.2001 17.6667C9.06675 15.9333 8.19453 14.1167 7.58341 12.2167C6.9723 10.3167 6.66675 8.46666 6.66675 6.66666C6.66675 5.37777 6.90008 4.38888 7.36675 3.69999C7.83341 3.0111 8.48897 2.66666 9.33341 2.66666C10.6001 2.66666 11.7334 3.27777 12.7334 4.49999C13.7334 5.72221 14.489 6.84443 15.0001 7.86666C15.2001 8.3111 15.3834 8.7611 15.5501 9.21666C15.7167 9.67221 15.8667 10.1444 16.0001 10.6333C16.1334 10.1444 16.2834 9.67221 16.4501 9.21666C16.6167 8.7611 16.8112 8.3111 17.0334 7.86666C17.5223 6.84443 18.2667 5.72221 19.2667 4.49999C20.2667 3.27777 21.4001 2.66666 22.6667 2.66666C23.5112 2.66666 24.1667 3.0111 24.6334 3.69999C25.1001 4.38888 25.3334 5.37777 25.3334 6.66666C25.3334 8.46666 25.0279 10.3167 24.4167 12.2167C23.8056 14.1167 22.9334 15.9333 21.8001 17.6667C22.0001 17.9111 22.1612 18.1055 22.2834 18.25C22.4056 18.3944 22.5334 18.5333 22.6667 18.6667C23.689 19.6889 24.389 20.5278 24.7667 21.1833C25.1445 21.8389 25.3334 22.5555 25.3334 23.3333C25.3334 25 24.7501 26.4167 23.5834 27.5833C22.4167 28.75 21.0001 29.3333 19.3334 29.3333C18.3334 29.3333 17.5279 29.2222 16.9167 29L16.0001 28.6667L15.0834 29C14.4723 29.2222 13.6667 29.3333 12.6667 29.3333ZM12.6667 26.6667C13.1779 26.6667 13.689 26.6055 14.2001 26.4833C14.7112 26.3611 15.189 26.1778 15.6334 25.9333C15.389 25.8222 15.1667 25.6333 14.9667 25.3667C14.7667 25.1 14.6667 24.8667 14.6667 24.6667C14.6667 24.4889 14.7945 24.3333 15.0501 24.2C15.3056 24.0667 15.6223 24 16.0001 24C16.3779 24 16.6945 24.0667 16.9501 24.2C17.2056 24.3333 17.3334 24.4889 17.3334 24.6667C17.3334 24.8667 17.2334 25.1 17.0334 25.3667C16.8334 25.6333 16.6112 25.8222 16.3667 25.9333C16.8112 26.1778 17.289 26.3611 17.8001 26.4833C18.3112 26.6055 18.8223 26.6667 19.3334 26.6667C20.2667 26.6667 21.0556 26.3444 21.7001 25.7C22.3445 25.0555 22.6667 24.2667 22.6667 23.3333C22.6667 22.9333 22.5556 22.5444 22.3334 22.1667C22.1112 21.7889 21.7779 21.4111 21.3334 21.0333C21.0223 20.7667 20.7667 20.5333 20.5667 20.3333C20.3667 20.1333 20.0445 19.7555 19.6001 19.2C18.9556 18.4222 18.4223 17.9167 18.0001 17.6833C17.5779 17.45 16.9112 17.3333 16.0001 17.3333C15.089 17.3333 14.4167 17.45 13.9834 17.6833C13.5501 17.9167 13.0223 18.4222 12.4001 19.2C11.9556 19.7555 11.6334 20.1333 11.4334 20.3333C11.2334 20.5333 10.9779 20.7667 10.6667 21.0333C10.2223 21.4111 9.88897 21.7889 9.66675 22.1667C9.44453 22.5444 9.33341 22.9333 9.33341 23.3333C9.33341 24.2667 9.65564 25.0555 10.3001 25.7C10.9445 26.3444 11.7334 26.6667 12.6667 26.6667ZM14.0001 22.3333C13.8223 22.3333 13.6667 22.2333 13.5334 22.0333C13.4001 21.8333 13.3334 21.6 13.3334 21.3333C13.3334 21.0667 13.4001 20.8333 13.5334 20.6333C13.6667 20.4333 13.8223 20.3333 14.0001 20.3333C14.1779 20.3333 14.3334 20.4333 14.4667 20.6333C14.6001 20.8333 14.6667 21.0667 14.6667 21.3333C14.6667 21.6 14.6001 21.8333 14.4667 22.0333C14.3334 22.2333 14.1779 22.3333 14.0001 22.3333ZM18.0001 22.3333C17.8223 22.3333 17.6667 22.2333 17.5334 22.0333C17.4001 21.8333 17.3334 21.6 17.3334 21.3333C17.3334 21.0667 17.4001 20.8333 17.5334 20.6333C17.6667 20.4333 17.8223 20.3333 18.0001 20.3333C18.1779 20.3333 18.3334 20.4333 18.4667 20.6333C18.6001 20.8333 18.6667 21.0667 18.6667 21.3333C18.6667 21.6 18.6001 21.8333 18.4667 22.0333C18.3334 22.2333 18.1779 22.3333 18.0001 22.3333ZM12.1001 15.7C12.3445 15.5222 12.6223 15.3667 12.9334 15.2333C13.2445 15.1 13.589 14.9778 13.9667 14.8667C13.9223 13.8 13.7612 12.7389 13.4834 11.6833C13.2056 10.6278 12.8556 9.66666 12.4334 8.79999C12.0112 7.9111 11.5445 7.1611 11.0334 6.54999C10.5223 5.93888 10.0112 5.54443 9.50008 5.36666C9.45564 5.49999 9.41675 5.67221 9.38341 5.88332C9.35008 6.09443 9.33341 6.35555 9.33341 6.66666C9.33341 8.17777 9.5723 9.7111 10.0501 11.2667C10.5279 12.8222 11.2112 14.3 12.1001 15.7ZM19.9001 15.7C20.789 14.3 21.4723 12.8222 21.9501 11.2667C22.4279 9.7111 22.6667 8.17777 22.6667 6.66666C22.6667 6.35555 22.6501 6.09443 22.6167 5.88332C22.5834 5.67221 22.5445 5.49999 22.5001 5.36666C21.989 5.54443 21.4779 5.93888 20.9667 6.54999C20.4556 7.1611 19.989 7.9111 19.5667 8.79999C19.1667 9.66666 18.8279 10.6278 18.5501 11.6833C18.2723 12.7389 18.1001 13.8 18.0334 14.8667C18.3667 14.9555 18.689 15.0722 19.0001 15.2167C19.3112 15.3611 19.6112 15.5222 19.9001 15.7Z" fill="white"/>
</g>
</svg>
