<svg width="32" height="32" viewBox="0 0 32 32" fill="none" xmlns="http://www.w3.org/2000/svg">
<mask id="mask0_55_614" style="mask-type:alpha" maskUnits="userSpaceOnUse" x="0" y="0" width="32" height="32">
<rect width="32" height="32" fill="#D9D9D9"/>
</mask>
<g mask="url(#mask0_55_614)">
<path d="M12 28H6.66667C5.93333 28 5.30556 27.7389 4.78333 27.2167C4.26111 26.6944 4 26.0667 4 25.3333V16C4 14.3333 4.31667 12.7722 4.95 11.3167C5.58333 9.86111 6.43889 8.59444 7.51667 7.51667C8.59444 6.43889 9.86111 5.58333 11.3167 4.95C12.7722 4.31667 14.3333 4 16 4C17.6667 4 19.2278 4.31667 20.6833 4.95C22.1389 5.58333 23.4056 6.43889 24.4833 7.51667C25.5611 8.59444 26.4167 9.86111 27.05 11.3167C27.6833 12.7722 28 14.3333 28 16V25.3333C28 26.0667 27.7389 26.6944 27.2167 27.2167C26.6944 27.7389 26.0667 28 25.3333 28H20V17.3333H25.3333V16C25.3333 13.4 24.4278 11.1944 22.6167 9.38333C20.8056 7.57222 18.6 6.66667 16 6.66667C13.4 6.66667 11.1944 7.57222 9.38333 9.38333C7.57222 11.1944 6.66667 13.4 6.66667 16V17.3333H12V28ZM9.33333 20H6.66667V25.3333H9.33333V20ZM22.6667 20V25.3333H25.3333V20H22.6667Z" fill="white"/>
</g>
</svg>
