<svg width="40" height="46" viewBox="0 0 40 46" fill="none" xmlns="http://www.w3.org/2000/svg">
<mask id="mask0_67_3146" style="mask-type:alpha" maskUnits="userSpaceOnUse" x="0" y="0" width="40" height="46">
<rect width="40" height="46" fill="#D9D9D9"/>
</mask>
<g mask="url(#mask0_67_3146)">
<path d="M3.68059 46C2.67235 46 1.80686 45.6377 1.08412 44.9131C0.361372 44.1885 0 43.3208 0 42.31V14.0176C0 13.0072 0.361372 12.1397 1.08412 11.4151C1.80686 10.6905 2.67235 10.3282 3.68059 10.3282H9.69823C9.69823 7.47303 10.6808 5.03798 12.6459 3.02303C14.6106 1.00768 17.0167 0 19.8641 0C22.7606 0 25.2243 0.999614 27.2553 2.99885C29.2863 4.99768 30.3018 7.4408 30.3018 10.3282H36.3194C37.3276 10.3282 38.1931 10.6905 38.9159 11.4151C39.6386 12.1397 40 13.0072 40 14.0176V42.31C40 43.3208 39.6386 44.1885 38.9159 44.9131C38.1931 45.6377 37.3276 46 36.3194 46H3.68059ZM3.68059 43.036H36.3194C36.5006 43.036 36.6667 42.9605 36.8176 42.8095C36.9682 42.6581 37.0435 42.4916 37.0435 42.31V14.0176C37.0435 13.8364 36.9682 13.6701 36.8176 13.5187C36.6667 13.3673 36.5006 13.2916 36.3194 13.2916H3.68059C3.49941 13.2916 3.33333 13.3673 3.18235 13.5187C3.03177 13.6701 2.95647 13.8364 2.95647 14.0176V42.31C2.95647 42.4916 3.03177 42.6581 3.18235 42.8095C3.33333 42.9605 3.49941 43.036 3.68059 43.036ZM20 26.266C22.8639 26.266 25.322 25.2373 27.3741 23.1799C29.4263 21.1225 30.4524 18.6581 30.4524 15.7868H27.4965C27.4965 17.8537 26.7592 19.6229 25.2847 21.0945C23.8106 22.5665 22.0484 23.3025 19.9982 23.3025C17.948 23.3025 16.189 22.5665 14.7212 21.0945C13.2529 19.6229 12.5188 17.8537 12.5188 15.7868H9.56294C9.56294 18.6581 10.5865 21.1225 12.6335 23.1799C14.6806 25.2373 17.1361 26.266 20 26.266ZM12.6547 10.3282H27.3453C27.3453 8.27155 26.6339 6.53003 25.2112 5.10364C23.7884 3.67725 22.0514 2.96405 20 2.96405C17.9486 2.96405 16.2116 3.67725 14.7888 5.10364C13.3661 6.53003 12.6547 8.27155 12.6547 10.3282Z" fill="white"/>
</g>
</svg>
