<svg width="32" height="32" viewBox="0 0 32 32" fill="none" xmlns="http://www.w3.org/2000/svg">
<mask id="mask0_55_570" style="mask-type:alpha" maskUnits="userSpaceOnUse" x="0" y="0" width="32" height="32">
<rect width="32" height="32" fill="#D9D9D9"/>
</mask>
<g mask="url(#mask0_55_570)">
<path d="M8.13336 15.2563L7.8617 13.6667C7.51814 13.564 7.19548 13.4323 6.8937 13.2717C6.59192 13.111 6.30603 12.9075 6.03603 12.6613L4.50003 13.2103L3.47437 11.5077L4.7387 10.4307C4.64292 10.0735 4.59503 9.70777 4.59503 9.33332C4.59503 8.95888 4.64292 8.5931 4.7387 8.23599L3.47437 7.15899L4.50003 5.45632L6.03603 6.00532C6.30603 5.7591 6.59192 5.55565 6.8937 5.39499C7.19548 5.23432 7.51814 5.10265 7.8617 4.99999L8.13336 3.41032H10.1334L10.405 4.99999C10.7486 5.10265 11.0713 5.23432 11.373 5.39499C11.6748 5.55565 11.9607 5.7591 12.2307 6.00532L13.7667 5.45632L14.7924 7.15899L13.528 8.23599C13.6238 8.5931 13.6717 8.95888 13.6717 9.33332C13.6717 9.70777 13.6238 10.0735 13.528 10.4307L14.7924 11.5077L13.7667 13.2103L12.2307 12.6613C11.9607 12.9075 11.6748 13.111 11.373 13.2717C11.0713 13.4323 10.7486 13.564 10.405 13.6667L10.1334 15.2563H8.13336ZM9.13336 12.1027C9.90092 12.1027 10.5544 11.833 11.0937 11.2937C11.633 10.7543 11.9027 10.1009 11.9027 9.33332C11.9027 8.56577 11.633 7.91232 11.0937 7.37299C10.5544 6.83365 9.90092 6.56399 9.13336 6.56399C8.36581 6.56399 7.71236 6.83365 7.17303 7.37299C6.6337 7.91232 6.36403 8.56577 6.36403 9.33332C6.36403 10.1009 6.6337 10.7543 7.17303 11.2937C7.71236 11.833 8.36581 12.1027 9.13336 12.1027ZM20.272 29.346L19.8514 27.2383C19.3625 27.1392 18.9078 26.9674 18.4874 26.723C18.0667 26.4785 17.688 26.1743 17.3514 25.8103L15.3644 26.4973L14.0234 24.2203L15.6437 22.841C15.4966 22.347 15.423 21.8444 15.423 21.3333C15.423 20.8222 15.4966 20.3197 15.6437 19.8257L14.0234 18.4463L15.3644 16.1693L17.3514 16.8563C17.688 16.4923 18.0667 16.1881 18.4874 15.9437C18.9078 15.6992 19.3625 15.5274 19.8514 15.4283L20.272 13.3207H22.928L23.3487 15.4283C23.8376 15.5274 24.2923 15.6992 24.7127 15.9437C25.1334 16.1881 25.512 16.4923 25.8487 16.8563L27.8357 16.1693L29.1767 18.4463L27.5564 19.8257C27.7035 20.3197 27.777 20.8222 27.777 21.3333C27.777 21.8444 27.7035 22.347 27.5564 22.841L29.1767 24.2203L27.8357 26.4973L25.8487 25.8103C25.512 26.1743 25.1334 26.4785 24.7127 26.723C24.2923 26.9674 23.8376 27.1392 23.3487 27.2383L22.928 29.346H20.272ZM21.6 25.3333C22.7111 25.3333 23.6556 24.9444 24.4334 24.1667C25.2111 23.3889 25.6 22.4444 25.6 21.3333C25.6 20.2222 25.2111 19.2778 24.4334 18.5C23.6556 17.7222 22.7111 17.3333 21.6 17.3333C20.4889 17.3333 19.5445 17.7222 18.7667 18.5C17.9889 19.2778 17.6 20.2222 17.6 21.3333C17.6 22.4444 17.9889 23.3889 18.7667 24.1667C19.5445 24.9444 20.4889 25.3333 21.6 25.3333Z" fill="white"/>
</g>
</svg>
