<svg width="25" height="25" viewBox="0 0 25 25" fill="none" xmlns="http://www.w3.org/2000/svg">
<mask id="mask0_301_8" style="mask-type:alpha" maskUnits="userSpaceOnUse" x="0" y="0" width="25" height="25">
<rect x="1.34009" y="1.33862" width="23" height="23" fill="#D9D9D9" stroke="black"/>
</mask>
<g mask="url(#mask0_301_8)">
<path d="M12.8401 3.33862C13.959 3.33862 14.8939 3.72447 15.6741 4.50464C16.4542 5.28481 16.8401 6.21972 16.8401 7.33862C16.8401 7.5607 16.8216 7.78338 16.7844 8.00659C16.7658 8.11824 16.7422 8.23017 16.7141 8.34253L16.6155 8.68042L16.3967 9.33862H20.8401C20.9975 9.33862 21.1062 9.38598 21.1995 9.47925C21.2927 9.57252 21.3401 9.68121 21.3401 9.83862V13.6384C21.3401 13.7958 21.2927 13.9046 21.1995 13.9978C21.1062 14.0911 20.9975 14.1384 20.8401 14.1384C20.7819 14.1384 20.7551 14.1262 20.7424 14.1189C20.7059 14.0976 20.6677 14.0739 20.6292 14.0466L20.51 13.9548C20.2817 13.751 20.0222 13.596 19.7336 13.4929C19.4458 13.3901 19.1469 13.3386 18.8401 13.3386C18.1564 13.3386 17.5591 13.5883 17.0745 14.073C16.5898 14.5577 16.3401 15.155 16.3401 15.8386C16.3401 16.5223 16.5898 17.1196 17.0745 17.6042C17.5591 18.0889 18.1564 18.3386 18.8401 18.3386C19.1469 18.3386 19.4458 18.2871 19.7336 18.1843C20.029 18.0788 20.2945 17.9197 20.5266 17.7087L20.5354 17.7009L20.5432 17.6921C20.5906 17.6447 20.6477 17.6024 20.7151 17.5662C20.7445 17.5504 20.7827 17.5388 20.8401 17.5388C20.9975 17.5388 21.1062 17.5862 21.1995 17.6794C21.2927 17.7727 21.3401 17.8815 21.3401 18.0388V21.8386C21.3401 21.996 21.2927 22.1047 21.1995 22.198C21.1062 22.2913 20.9975 22.3386 20.8401 22.3386H4.84009C4.68267 22.3386 4.57398 22.2913 4.48071 22.198C4.38744 22.1047 4.34009 21.996 4.34009 21.8386V18.0388C4.34009 17.8933 4.38289 17.7938 4.46411 17.7087C4.54624 17.6227 4.62924 17.5886 4.74048 17.5886C4.82045 17.5887 4.89582 17.6014 4.96899 17.6257C5.04274 17.6503 5.1198 17.6889 5.19946 17.7458L5.21313 17.7556L5.22778 17.7644C5.46028 17.9075 5.69505 18.0335 5.93091 18.1423C6.21634 18.274 6.52134 18.3386 6.84009 18.3386C7.52375 18.3386 8.12103 18.0889 8.60571 17.6042C9.0904 17.1196 9.34009 16.5223 9.34009 15.8386C9.34009 15.155 9.0904 14.5577 8.60571 14.073C8.12103 13.5883 7.52375 13.3386 6.84009 13.3386C6.5333 13.3386 6.23433 13.3901 5.94653 13.4929C5.65793 13.596 5.39843 13.751 5.17017 13.9548C5.1241 13.9932 5.06587 14.025 4.99048 14.0486C4.90337 14.0758 4.82064 14.0886 4.74048 14.0886C4.62924 14.0886 4.54624 14.0545 4.46411 13.9685C4.38289 13.8834 4.34009 13.7839 4.34009 13.6384V9.83862C4.34009 9.68121 4.38744 9.57252 4.48071 9.47925C4.57398 9.38598 4.68267 9.33862 4.84009 9.33862H9.28345L9.0647 8.68042C8.98931 8.45427 8.93296 8.22978 8.89575 8.00659C8.85855 7.78338 8.84009 7.5607 8.84009 7.33862C8.84009 6.21972 9.22594 5.28481 10.0061 4.50464C10.7863 3.72447 11.7212 3.33862 12.8401 3.33862ZM12.8401 4.33862C12.0111 4.33862 11.2908 4.63012 10.7112 5.20972C10.1316 5.78932 9.84009 6.50959 9.84009 7.33862C9.84009 7.74118 9.90287 8.13243 10.0286 8.50952C10.1707 8.93572 10.4314 9.2843 10.7991 9.54468V9.54565C10.8376 9.57314 10.8475 9.59335 10.8528 9.60913C10.8773 9.68253 10.8899 9.75838 10.8899 9.83862C10.8899 9.99604 10.8425 10.1047 10.7493 10.198C10.656 10.2912 10.5473 10.3386 10.3899 10.3386H5.34009V12.6609L5.98364 12.4675C6.13057 12.4235 6.27119 12.3911 6.40552 12.3699C6.5347 12.3495 6.67923 12.3386 6.84009 12.3386C7.80643 12.3386 8.62145 12.6766 9.31177 13.3669C10.0021 14.0573 10.3401 14.8723 10.3401 15.8386C10.3401 16.805 10.0021 17.62 9.31177 18.3103C8.62145 19.0006 7.80643 19.3386 6.84009 19.3386C6.67923 19.3386 6.5347 19.3278 6.40552 19.3074C6.27119 19.2862 6.13057 19.2538 5.98364 19.2097L5.34009 19.0164V21.3386H20.3401V19.0164L19.6965 19.2097C19.5496 19.2538 19.409 19.2862 19.2747 19.3074C19.1455 19.3278 19.0009 19.3386 18.8401 19.3386C17.8738 19.3386 17.0587 19.0006 16.3684 18.3103C15.6781 17.62 15.3401 16.805 15.3401 15.8386C15.3401 14.8723 15.6781 14.0573 16.3684 13.3669C17.0587 12.6766 17.8738 12.3386 18.8401 12.3386C19.0009 12.3386 19.1455 12.3495 19.2747 12.3699C19.409 12.3911 19.5496 12.4235 19.6965 12.4675L20.3401 12.6609V10.3386H15.2903C15.126 10.3386 15.015 10.2898 14.9231 10.2019C14.8308 10.1135 14.7903 10.0193 14.7903 9.88843C14.7903 9.80772 14.8027 9.71758 14.8323 9.61694C14.8434 9.57921 14.8583 9.56191 14.8811 9.54565L14.8801 9.54468C15.2481 9.28425 15.5094 8.93597 15.6516 8.50952C15.7773 8.13243 15.8401 7.74118 15.8401 7.33862C15.8401 6.50959 15.5486 5.78932 14.969 5.20972C14.3894 4.63012 13.6691 4.33862 12.8401 4.33862Z" fill="white" stroke="white"/>
</g>
</svg>
