<svg width="32" height="32" viewBox="0 0 32 32" fill="none" xmlns="http://www.w3.org/2000/svg">
<mask id="mask0_55_577" style="mask-type:alpha" maskUnits="userSpaceOnUse" x="0" y="0" width="32" height="32">
<rect width="32" height="32" fill="#D9D9D9"/>
</mask>
<g mask="url(#mask0_55_577)">
<path d="M10.1283 8.66666V7.23066C10.1283 6.68066 10.324 6.20988 10.7156 5.81833C11.1074 5.42677 11.5783 5.231 12.1283 5.231H19.8716C20.4216 5.231 20.8925 5.42677 21.2843 5.81833C21.6758 6.20988 21.8716 6.68066 21.8716 7.23066V8.66666H23.5999C23.9966 8.66666 24.356 8.77611 24.6783 8.99499C25.0003 9.21366 25.2357 9.50077 25.3846 9.85633L28.4409 16.8257C28.516 17.0119 28.5725 17.2047 28.6103 17.404C28.6478 17.6031 28.6666 17.7901 28.6666 17.965V24C28.6666 24.55 28.4707 25.0208 28.0789 25.4123C27.6874 25.8041 27.2166 26 26.6666 26H5.33325C4.78325 26 4.31247 25.8041 3.92092 25.4123C3.52914 25.0208 3.33325 24.55 3.33325 24V17.9693C3.33325 17.7658 3.35203 17.5709 3.38959 17.3847C3.42736 17.1982 3.48381 17.0119 3.55892 16.8257L6.61525 9.85633C6.76414 9.50077 6.99959 9.21366 7.32159 8.99499C7.64381 8.77611 8.00325 8.66666 8.39992 8.66666H10.1283ZM12.1283 8.66666H19.8716V7.23066H12.1283V8.66666ZM9.66659 16.4617V15.1283H11.6666V16.4617H20.3333V15.1283H22.3333V16.4617H26.0973L23.5999 10.6667H8.39992L5.90259 16.4617H9.66659ZM9.66659 18.4617H5.33325V24H26.6666V18.4617H22.3333V19.795H20.3333V18.4617H11.6666V19.795H9.66659V18.4617Z" fill="white"/>
</g>
</svg>
