<svg width="32" height="32" viewBox="0 0 32 32" fill="none" xmlns="http://www.w3.org/2000/svg">
<mask id="mask0_208_44" style="mask-type:alpha" maskUnits="userSpaceOnUse" x="0" y="0" width="32" height="32">
<rect width="32" height="32" fill="#D9D9D9"/>
</mask>
<g mask="url(#mask0_208_44)">
<path d="M16.0002 29.311C12.8964 28.5332 10.3427 26.7388 8.33916 23.9277C6.33538 21.1166 5.3335 18.0221 5.3335 14.6443V6.64433L16.0002 2.64433L26.6668 6.64433V14.6443C26.6668 18.0221 25.6649 21.1166 23.6612 23.9277C21.6576 26.7388 19.1039 28.5332 16.0002 29.311ZM16.0002 27C18.4742 26.1927 20.5001 24.6408 22.0778 22.3443C23.6556 20.0481 24.4445 17.4814 24.4445 14.6443V8.189L16.0002 5.011L7.55583 8.189V14.6443C7.55583 17.4814 8.34472 20.0481 9.9225 22.3443C11.5003 24.6408 13.5262 26.1927 16.0002 27Z" fill="white"/>
</g>
</svg>
