<svg width="32" height="32" viewBox="0 0 32 32" fill="none" xmlns="http://www.w3.org/2000/svg">
<mask id="mask0_55_543" style="mask-type:alpha" maskUnits="userSpaceOnUse" x="0" y="0" width="32" height="32">
<rect width="32" height="32" fill="#D9D9D9"/>
</mask>
<g mask="url(#mask0_55_543)">
<path d="M6.692 26.8973C6.40844 26.8973 6.171 26.8016 5.97967 26.61C5.78811 26.4182 5.69233 26.1807 5.69233 25.8973V24.564H5.33333C4.40178 24.564 3.61333 24.2413 2.968 23.596C2.32267 22.9509 2 22.1624 2 21.2307V14.564C2 13.5811 2.33544 12.7799 3.00633 12.1603C3.67744 11.5406 4.45311 11.2307 5.33333 11.2307V8.82067C5.33333 7.88889 5.656 7.10045 6.30133 6.45533C6.94667 5.81 7.73511 5.48734 8.66667 5.48734H23.3333C24.2649 5.48734 25.0533 5.81 25.6987 6.45533C26.344 7.10045 26.6667 7.88889 26.6667 8.82067V11.2307C27.5811 11.2307 28.3653 11.547 29.0193 12.1797C29.6731 12.8121 30 13.6069 30 14.564V21.2307C30 22.1624 29.6773 22.9509 29.032 23.596C28.3867 24.2413 27.5982 24.564 26.6667 24.564H26.3077V25.8973C26.3077 26.1807 26.2162 26.4182 26.0333 26.61C25.8504 26.8016 25.6172 26.8973 25.3337 26.8973C25.0503 26.8973 24.8128 26.8016 24.621 26.61C24.4292 26.4182 24.3333 26.1807 24.3333 25.8973V24.564H7.69233V25.8973C7.69233 26.1811 7.59645 26.4188 7.40467 26.6103C7.21289 26.8017 6.97533 26.8973 6.692 26.8973ZM5.33333 22.564H26.6667C27.0444 22.564 27.3611 22.4362 27.6167 22.1807C27.8722 21.9251 28 21.6084 28 21.2307V14.564C28 14.1862 27.8722 13.8696 27.6167 13.614C27.3611 13.3584 27.0444 13.2307 26.6667 13.2307C26.2889 13.2307 25.9722 13.3584 25.7167 13.614C25.4611 13.8696 25.3333 14.1862 25.3333 14.564V19.564H6.66667V14.564C6.66667 14.1862 6.53889 13.8696 6.28333 13.614C6.02778 13.3584 5.71111 13.2307 5.33333 13.2307C4.95556 13.2307 4.63889 13.3584 4.38333 13.614C4.12778 13.8696 4 14.1862 4 14.564V21.2307C4 21.6084 4.12778 21.9251 4.38333 22.1807C4.63889 22.4362 4.95556 22.564 5.33333 22.564ZM8.66667 17.564H23.3333V14.564C23.3333 14.024 23.4556 13.5309 23.7 13.0847C23.9444 12.6384 24.2667 12.2649 24.6667 11.964V8.82067C24.6667 8.44289 24.5389 8.12622 24.2833 7.87067C24.0278 7.61511 23.7111 7.48734 23.3333 7.48734H8.66667C8.28889 7.48734 7.97222 7.61511 7.71667 7.87067C7.46111 8.12622 7.33333 8.44289 7.33333 8.82067V11.964C7.73333 12.2649 8.05556 12.6384 8.3 13.0847C8.54444 13.5309 8.66667 14.024 8.66667 14.564V17.564Z" fill="white"/>
</g>
</svg>
