<svg width="32" height="32" viewBox="0 0 32 32" fill="none" xmlns="http://www.w3.org/2000/svg">
<mask id="mask0_55_556" style="mask-type:alpha" maskUnits="userSpaceOnUse" x="0" y="0" width="32" height="32">
<rect width="32" height="32" fill="#D9D9D9"/>
</mask>
<g mask="url(#mask0_55_556)">
<path d="M3.33325 26V23H5.99992V8.41033C5.99992 7.74744 6.23592 7.18 6.70792 6.708C7.17992 6.236 7.74736 6 8.41025 6H27.3333V8H8.41025C8.29047 8 8.19214 8.03845 8.11525 8.11533C8.03836 8.19222 7.99992 8.29056 7.99992 8.41033V23H15.6536V26H3.33325ZM20.0383 26C19.6969 26 19.4107 25.8844 19.1796 25.6533C18.9487 25.4224 18.8333 25.1362 18.8333 24.7947V12.1283C18.8333 11.7868 18.9487 11.5006 19.1796 11.2697C19.4107 11.0386 19.6969 10.923 20.0383 10.923H27.4743C27.8156 10.923 28.1018 11.0386 28.3329 11.2697C28.5638 11.5006 28.6793 11.7868 28.6793 12.1283V24.7947C28.6793 25.1362 28.5638 25.4224 28.3329 25.6533C28.1018 25.8844 27.8156 26 27.4743 26H20.0383ZM20.8333 23H26.6793V12.923H20.8333V23Z" fill="white"/>
</g>
</svg>
