<svg width="40" height="20" viewBox="0 0 40 20" fill="none" xmlns="http://www.w3.org/2000/svg">
<rect width="40" height="20" rx="5" fill="#D9D9D9"/>
<path d="M10.0568 14V5.27273H15.3239V6.21023H11.1136V9.15909H15.0511V10.0966H11.1136V13.0625H15.392V14H10.0568ZM17.8423 7.45455L19.4105 10.1307L20.9787 7.45455H22.1378L20.0241 10.7273L22.1378 14H20.9787L19.4105 11.4602L17.8423 14H16.6832L18.7628 10.7273L16.6832 7.45455H17.8423ZM25.9624 14.1364C25.3487 14.1364 24.8203 13.9915 24.3771 13.7017C23.9339 13.4119 23.593 13.0128 23.3544 12.5043C23.1158 11.9957 22.9964 11.4148 22.9964 10.7614C22.9964 10.0966 23.1186 9.50994 23.3629 9.00142C23.6101 8.49006 23.9538 8.09091 24.3942 7.80398C24.8374 7.5142 25.3544 7.36932 25.9453 7.36932C26.4055 7.36932 26.8203 7.45455 27.1896 7.625C27.5589 7.79545 27.8615 8.03409 28.0973 8.34091C28.3331 8.64773 28.4794 9.00568 28.5362 9.41477H27.5305C27.4538 9.11648 27.2834 8.85227 27.0192 8.62216C26.7578 8.3892 26.4055 8.27273 25.9624 8.27273C25.5703 8.27273 25.2266 8.375 24.9311 8.57955C24.6385 8.78125 24.4098 9.06676 24.245 9.43608C24.0831 9.80256 24.0021 10.233 24.0021 10.7273C24.0021 11.233 24.0817 11.6733 24.2408 12.0483C24.4027 12.4233 24.63 12.7145 24.9226 12.9219C25.218 13.1293 25.5646 13.233 25.9624 13.233C26.2237 13.233 26.4609 13.1875 26.674 13.0966C26.8871 13.0057 27.0675 12.875 27.2152 12.7045C27.3629 12.5341 27.468 12.3295 27.5305 12.0909H28.5362C28.4794 12.4773 28.3388 12.8253 28.1143 13.1349C27.8928 13.4418 27.5987 13.6861 27.2322 13.8679C26.8686 14.0469 26.4453 14.1364 25.9624 14.1364ZM31.0121 5.27273V14H30.0064V5.27273H31.0121Z" fill="black"/>
</svg>
