<svg width="32" height="32" viewBox="0 0 32 32" fill="none" xmlns="http://www.w3.org/2000/svg">
<mask id="mask0_55_593" style="mask-type:alpha" maskUnits="userSpaceOnUse" x="0" y="0" width="32" height="32">
<rect width="32" height="32" fill="#D9D9D9"/>
</mask>
<g mask="url(#mask0_55_593)">
<path d="M17.8667 29.2L16 27.3334L20.7334 22.6L9.40005 11.2667L4.66672 16L2.80005 14.1334L4.66672 12.2L2.80005 10.3334L5.60005 7.53335L3.73338 5.60002L5.60005 3.73335L7.53338 5.60002L10.3334 2.80002L12.2001 4.66669L14.1334 2.80002L16 4.66669L11.2667 9.40002L22.6001 20.7334L27.3334 16L29.2001 17.8667L27.3334 19.8L29.2001 21.6667L26.4001 24.4667L28.2667 26.4L26.4001 28.2667L24.4667 26.4L21.6667 29.2L19.8001 27.3334L17.8667 29.2Z" fill="white"/>
</g>
</svg>
