<svg width="24" height="24" viewBox="0 0 24 24" fill="none" xmlns="http://www.w3.org/2000/svg">
<mask id="mask0_63_839" style="mask-type:alpha" maskUnits="userSpaceOnUse" x="0" y="0" width="24" height="24">
<rect width="24" height="24" fill="#D9D9D9"/>
</mask>
<g mask="url(#mask0_63_839)">
<path d="M8.125 7.09225L10.7328 3.62125C10.8918 3.40742 11.0805 3.25042 11.299 3.15025C11.5177 3.05008 11.7513 3 12 3C12.2487 3 12.4823 3.05008 12.701 3.15025C12.9195 3.25042 13.1083 3.40742 13.2673 3.62125L15.875 7.09225L19.8943 8.4595C20.2506 8.58017 20.5249 8.78217 20.7173 9.0655C20.9096 9.349 21.0058 9.66217 21.0058 10.005C21.0058 10.1632 20.9826 10.3202 20.9363 10.4762C20.8899 10.6324 20.8138 10.782 20.7078 10.925L18.073 14.498L18.173 18.3288C18.1897 18.7986 18.0343 19.1946 17.7068 19.5168C17.3793 19.8389 16.9982 20 16.5635 20C16.5687 20 16.4173 19.9814 16.1095 19.9443L12 18.7327L7.8905 19.9443C7.80717 19.9776 7.72675 19.9952 7.64925 19.997C7.57192 19.999 7.501 20 7.4365 20C6.993 20 6.60967 19.8389 6.2865 19.5168C5.9635 19.1946 5.81033 18.7986 5.827 18.3288L5.927 14.473L3.298 10.925C3.192 10.7807 3.11583 10.6298 3.0695 10.4723C3.02317 10.3149 3 10.1575 3 10C3 9.6625 3.09883 9.34858 3.2965 9.05825C3.49433 8.76792 3.7705 8.562 4.125 8.4405L8.125 7.09225Z" fill="#DBB13E"/>
</g>
</svg>
