<svg width="32" height="32" viewBox="0 0 32 32" fill="none" xmlns="http://www.w3.org/2000/svg">
<mask id="mask0_55_1530" style="mask-type:alpha" maskUnits="userSpaceOnUse" x="0" y="0" width="32" height="32">
<rect width="32" height="32" fill="#D9D9D9"/>
</mask>
<g mask="url(#mask0_55_1530)">
<path d="M12.5387 29V11.405C10.6958 10.9828 9.19877 10.0265 8.04766 8.53604C6.89632 7.04538 6.28221 5.35393 6.20532 3.46171H8.20499C8.29054 5.18637 8.91499 6.64315 10.0783 7.83204C11.2414 9.02093 12.6598 9.61538 14.3333 9.61538H17.6667C18.2564 9.61538 18.7847 9.71415 19.2513 9.91171C19.718 10.109 20.159 10.4154 20.5743 10.8307L26.4153 16.6717L25.0103 18.077L19.4613 12.528V29H17.4617V21.077H14.5383V29H12.5387ZM16 7.84604C15.318 7.84604 14.7372 7.60638 14.2577 7.12704C13.7781 6.64749 13.5383 6.06671 13.5383 5.38471C13.5383 4.70271 13.7781 4.12193 14.2577 3.64238C14.7372 3.16282 15.318 2.92304 16 2.92304C16.682 2.92304 17.2628 3.16282 17.7423 3.64238C18.2219 4.12193 18.4617 4.70271 18.4617 5.38471C18.4617 6.06671 18.2219 6.64749 17.7423 7.12704C17.2628 7.60638 16.682 7.84604 16 7.84604Z" fill="white"/>
</g>
</svg>
